<?xml version="1.0" encoding="utf-8"?>
<!-- Generator: Adobe Illustrator 27.2.0, SVG Export Plug-In . SVG Version: 6.00 Build 0)  -->
<svg version="1.0" id="Layer_1" xmlns="http://www.w3.org/2000/svg" xmlns:xlink="http://www.w3.org/1999/xlink" x="0px" y="0px"
	 width="512px" height="512px" viewBox="0 0 512 512" style="enable-background:new 0 0 512 512;" xml:space="preserve">
<style type="text/css">
	.st0{fill:#FFFFFF;}
</style>
<g>
	<path class="st0" d="M25.66,133.5c0-25.16-0.03-50.32,0.01-75.49c0.03-19.43,12.85-32.32,32.21-32.34
		c49.66-0.05,99.31-0.07,148.97-0.02c21.47,0.02,33.83,12.46,33.83,33.85c0.01,49.16,0.01,98.32,0,147.48
		c-0.01,20.9-12.77,33.7-33.57,33.7c-49.33,0.01-98.65,0.01-147.98,0c-20.76-0.01-33.39-12.46-33.47-33.19
		C25.58,182.83,25.65,158.16,25.66,133.5z M132.77,220.13c24.48,0,48.96,0.02,73.45-0.01c10.96-0.01,13.9-2.96,13.91-13.97
		c0.02-49.13,0.02-98.26,0-147.39c0-9.14-3.56-12.71-12.72-12.71c-49.63-0.02-99.26-0.02-148.89,0c-8.75,0-12.45,3.73-12.45,12.52
		c-0.02,49.63-0.02,99.26,0,148.89c0,9.14,3.56,12.65,12.76,12.66C83.47,220.14,108.12,220.13,132.77,220.13z"/>
	<path class="st0" d="M379.12,25.66c24.83,0,49.66-0.04,74.48,0.01c20.09,0.04,32.73,12.73,32.73,32.82
		c0.02,49.99-0.02,99.98,0.02,149.97c0.01,13.25-5.55,23.3-17.52,28.99c-4.35,2.07-9.61,3.07-14.46,3.09
		c-50.32,0.22-100.65,0.17-150.97,0.12c-18.84-0.02-32.05-13.27-32.07-32.18c-0.06-50.16-0.06-100.32,0-150.47
		c0.02-19.42,12.85-32.25,32.31-32.33C328.79,25.58,353.95,25.66,379.12,25.66z M291.87,132.8c0.01,0,0.02,0,0.02,0
		c0,24.81-0.02,49.63,0.01,74.44c0.01,9.59,3.28,12.84,12.96,12.85c49.46,0.03,98.93,0.03,148.39,0.03
		c9.09,0,12.67-3.59,12.68-12.75c0.02-49.63,0.02-99.26,0-148.89c0-8.72-3.75-12.43-12.54-12.44c-49.63-0.02-99.26-0.02-148.89,0
		c-9.1,0-12.63,3.62-12.63,12.8C291.86,83.51,291.87,108.15,291.87,132.8z"/>
	<path class="st0" d="M132.87,486.34c-24.99,0-49.99,0.03-74.98-0.01c-19.14-0.03-32.17-12.83-32.2-31.85
		c-0.07-50.16-0.08-100.31,0-150.47c0.03-20.08,12.82-32.68,32.95-32.69c49.66-0.03,99.32-0.02,148.97,0
		c20.15,0.01,33.08,12.98,33.09,33.19c0.02,49.49,0.02,98.98,0,148.47c-0.01,20.67-12.56,33.27-33.33,33.34
		C182.53,486.41,157.7,486.34,132.87,486.34z M133.04,465.96c24.81,0,49.63,0.02,74.44-0.01c9.14-0.01,12.64-3.58,12.64-12.79
		c0-49.63,0-99.26-0.03-148.89c-0.01-8.87-3.51-12.35-12.45-12.36c-49.46-0.03-98.93-0.03-148.39-0.03
		c-9.76,0-13.19,3.43-13.19,13.25c-0.01,49.3-0.01,98.59,0,147.89c0,9.39,3.57,12.93,13.04,12.94
		C83.74,465.97,108.39,465.96,133.04,465.96z"/>
	<path class="st0" d="M389.1,368.68c2.21,0,3.99,0,5.77,0c26.16,0.01,52.32,0.01,78.49,0.02c0.17,0,0.33,0,0.5,0
		c8.05,0.07,12.54,3.81,12.43,10.35c-0.1,6.32-4.6,10.04-12.3,10.06c-9.66,0.03-19.33,0.01-28.99,0
		c-16.83-0.01-33.66-0.02-50.49-0.01c-1.62,0-3.25,0.16-5.42,0.27c0,2.25,0,4.2,0,6.15c0.01,26.16,0.02,52.32,0.02,78.49
		c0,7.27-3.26,11.62-9.08,12.21c-6.51,0.67-11.24-3.74-11.28-10.91c-0.1-17.5-0.05-34.99-0.05-52.49c0-10.98,0-21.95,0-33.72
		c-2.09,0-3.83,0-5.57,0c-26.16-0.01-52.32-0.01-78.49-0.02c-1,0-2,0.03-3-0.03c-5.99-0.34-10.24-4.53-10.28-10.1
		c-0.03-5.54,4.17-10.06,10.15-10.18c11.33-0.22,22.66-0.11,33.99-0.11c16.16,0,32.33-0.09,48.49,0.1c3.75,0.04,4.81-1.09,4.79-4.81
		c-0.15-25.49-0.09-50.99-0.09-76.49c0-1.33-0.04-2.67-0.01-4c0.12-7.48,4.13-12.18,10.31-12.11c6.23,0.06,10.07,4.7,10.07,12.31
		c0.03,26.49,0.02,52.99,0.03,79.48C389.1,364.79,389.1,366.42,389.1,368.68z"/>
</g>
</svg>
