<?xml version="1.0" encoding="utf-8"?>
<!-- Generator: Adobe Illustrator 22.0.0, SVG Export Plug-In . SVG Version: 6.00 Build 0)  -->
<svg version="1.1" id="Capa_1" xmlns="http://www.w3.org/2000/svg" xmlns:xlink="http://www.w3.org/1999/xlink" x="0px" y="0px" viewBox="0 0 485.8 485.8" style="enable-background:new 0 0 485.8 485.8;" xml:space="preserve">
  <style type="text/css">
	.st0{fill:#FCFCFC;}
	.st1{fill:#FFFFFF;}
</style>
  <g>
    <rect x="15.8" y="404.4" class="st0" width="460" height="20" />
    <path class="st1" d="M468.8,89.3c-33.4-19.5-71.4-9.1-97.3,3l-77.4,36.1L161,61.4l-79.3,3.4l109.9,111.4l-70,33.3l-72.9-27.7
		L0,204.5l44.1,54.7c-4.7,5.6-8.9,13.4-5,21.6c5,10.7,19.8,16.1,44.1,16.1c5,0,10.4-0.2,16.1-0.7c26.6-2.1,55.5-8.9,73.6-17.3
		l276.6-129c23.9-11.1,35.8-22.8,36.4-35.8C486.1,107.6,483.4,97.8,468.8,89.3z M440.9,131.9l-276.6,129
		c-15.4,7.2-40.6,13.2-64.3,15.3c-24.2,2.2-37.2-0.6-41.5-2.9c0.9-1.2,2.5-3.1,5.6-5.8l7.2-6.3l-39.7-49.3l18-8.4l72.9,27.8
		l103.2-49l-98-99.4l29-1.2l137.1,68.9l86.2-40.2c31.5-14.7,58-16,78.8-3.8l0,0c5.2,3.1,7.1,5.7,7,6.8
		C465.8,113.4,465.2,120.6,440.9,131.9z" />
  </g>
</svg>