<?xml version="1.0" encoding="utf-8"?>
<!-- Generator: Adobe Illustrator 27.2.0, SVG Export Plug-In . SVG Version: 6.00 Build 0)  -->
<svg version="1.0" id="Layer_1" xmlns="http://www.w3.org/2000/svg" xmlns:xlink="http://www.w3.org/1999/xlink" x="0px" y="0px"
	 width="192px" height="192px" viewBox="0 0 192 192" style="enable-background:new 0 0 192 192;" xml:space="preserve">
<style type="text/css">
	.st0{fill:none;stroke:#FFFFFF;stroke-miterlimit:10;}
</style>
<path vector-effect="non-scaling-stroke" class="st0" d="M76,70.4c0,0,2.4-14.4,20-14.4s23.2,21.6,14.4,30.4L100,96.8
	c-2.4,2.4-4,5.6-4,9.6v8 M96.8,136c0-0.44-0.36-0.8-0.8-0.8c-0.44,0-0.8,0.36-0.8,0.8c0,0,0,0,0,0 M172,96c0,41.97-34.03,76-76,76
	s-76-34.03-76-76s34.03-76,76-76S172,54.03,172,96 M97.6,136c0,0.88-0.71,1.6-1.6,1.6s-1.6-0.71-1.6-1.6c0,0,0,0,0,0
	c0-0.88,0.72-1.6,1.6-1.6C96.88,134.4,97.6,135.12,97.6,136"/>
</svg>
