<?xml version="1.0" encoding="utf-8"?>
<!-- Generator: Adobe Illustrator 22.0.0, SVG Export Plug-In . SVG Version: 6.00 Build 0)  -->
<svg version="1.1" id="Capa_1" xmlns="http://www.w3.org/2000/svg" xmlns:xlink="http://www.w3.org/1999/xlink" x="0px" y="0px" viewBox="0 0 512 512" style="enable-background:new 0 0 512 512;" xml:space="preserve">
  <style type="text/css">
	.st0{fill:#FFFFFF;}
</style>
  <g>
    <g>
      <path class="st0" d="M432.8,329.2c-27.2-27.2-59.6-47.4-95-59.6c37.9-26.1,62.8-69.7,62.8-119.1C400.5,70.8,335.7,6,256,6
			S111.5,70.8,111.5,150.5c0,49.4,24.9,93,62.8,119.1c-35.4,12.2-67.8,32.4-95,59.6C32,376.4,6,439.2,6,506h26.4
			c0-116.3,107.3-211.9,223.6-211.9S477.7,389.7,477.7,506H506C506,439.2,480,376.4,432.8,329.2z M256,266.7
			c-64.1,0-116.2-52.1-116.2-116.2S191.9,34.3,256,34.3s116.2,52.1,116.2,116.2S320.1,266.7,256,266.7z" />
    </g>
  </g>
</svg>