<?xml version="1.0" encoding="utf-8"?>
<!-- Generator: Adobe Illustrator 22.0.0, SVG Export Plug-In . SVG Version: 6.00 Build 0)  -->
<svg version="1.1" id="Capa_1" xmlns="http://www.w3.org/2000/svg" xmlns:xlink="http://www.w3.org/1999/xlink" x="0px" y="0px" viewBox="0 0 485.8 485.8" style="enable-background:new 0 0 485.8 485.8;" xml:space="preserve">
  <style type="text/css">
	.st0{fill:none;stroke:#FFFFFF;stroke-width:20;stroke-miterlimit:10;}
</style>
  <path class="st0" d="M388.9,452.9h-292c-6.6,0-12-5.4-12-12V44.9c0-6.6,5.4-12,12-12H316c6.6,0,84.9,82.2,84.9,88.8v319.3
	C400.9,447.5,395.5,452.9,388.9,452.9z" />
  <path class="st0" d="M398.7,120H316c-1.1,0-2-0.9-2-2V35.3c0-1.1,0.9-2,2-2l84.7,84.7C400.7,119.1,399.8,120,398.7,120z" />
  <path class="st0" d="M175.5,193.8h-38.9c-0.7,0-1.3-0.6-1.3-1.3l0,0c0-0.7,0.6-1.3,1.3-1.3h38.9c0.7,0,1.3,0.6,1.3,1.3l0,0
	C176.8,193.2,176.2,193.8,175.5,193.8z" />
  <path class="st0" d="M308.7,193.8h-96c-0.7,0-1.3-0.6-1.3-1.3l0,0c0-0.7,0.6-1.3,1.3-1.3h96c0.7,0,1.3,0.6,1.3,1.3l0,0
	C310,193.2,309.4,193.8,308.7,193.8z" />
  <path class="st0" d="M175.5,271.3h-38.9c-0.7,0-1.3-0.6-1.3-1.3l0,0c0-0.7,0.6-1.3,1.3-1.3h38.9c0.7,0,1.3,0.6,1.3,1.3l0,0
	C176.8,270.7,176.2,271.3,175.5,271.3z" />
  <path class="st0" d="M308.7,271.3h-96c-0.7,0-1.3-0.6-1.3-1.3l0,0c0-0.7,0.6-1.3,1.3-1.3h96c0.7,0,1.3,0.6,1.3,1.3l0,0
	C310,270.7,309.4,271.3,308.7,271.3z" />
  <path class="st0" d="M175.5,348.6h-38.9c-0.7,0-1.3-0.6-1.3-1.3l0,0c0-0.7,0.6-1.3,1.3-1.3h38.9c0.7,0,1.3,0.6,1.3,1.3l0,0
	C176.8,348,176.2,348.6,175.5,348.6z" />
  <path class="st0" d="M308.7,348.6h-96c-0.7,0-1.3-0.6-1.3-1.3l0,0c0-0.7,0.6-1.3,1.3-1.3h96c0.7,0,1.3,0.6,1.3,1.3l0,0
	C310,348,309.4,348.6,308.7,348.6z" />
</svg>