<?xml version="1.0" encoding="utf-8"?>
<!-- Generator: Adobe Illustrator 27.2.0, SVG Export Plug-In . SVG Version: 6.00 Build 0)  -->
<svg version="1.0" id="Layer_1" xmlns="http://www.w3.org/2000/svg" xmlns:xlink="http://www.w3.org/1999/xlink" x="0px" y="0px"
	 width="192px" height="192px" viewBox="0 0 192 192" style="enable-background:new 0 0 192 192;" xml:space="preserve">
<style type="text/css">
	.st0{fill:none;stroke:#FFFFFF;stroke-miterlimit:10;}
</style>
<path vector-effect="non-scaling-stroke" class="st0" d="M111.88,132.78l-41.23,39.33c-0.33,0.31-0.82,0.36-1.21,0.13
	c-0.39-0.23-0.57-0.7-0.44-1.13L92.48,90.9 M99.62,90.9l23.47,80.21c0.15,0.53-0.16,1.09-0.69,1.24c-0.12,0.03-0.25,0.05-0.37,0.03
	c-0.22-0.02-0.42-0.12-0.58-0.27l-41.23-39.3 M59.38,41.84c-20.42,20.36-20.46,53.42-0.09,73.84c0.03,0.03,0.06,0.06,0.09,0.09
	 M41.77,26.44c-28.92,28.88-28.96,75.73-0.08,104.65c0.03,0.03,0.05,0.05,0.08,0.08 M132.71,41.84
	c20.42,20.36,20.46,53.42,0.09,73.84c-0.03,0.03-0.06,0.06-0.09,0.09 M150.32,26.44c13.9,13.88,21.71,32.72,21.71,52.36
	c0,19.65-7.81,38.48-21.71,52.37 M96,64.25h13.58v13.58c0,7.5-6.08,13.58-13.58,13.58c0,0,0,0,0,0c-7.5,0-13.58-6.08-13.58-13.58
	S88.5,64.25,96,64.25"/>
</svg>
