<?xml version="1.0" encoding="utf-8"?>
<!-- Generator: Adobe Illustrator 27.2.0, SVG Export Plug-In . SVG Version: 6.00 Build 0)  -->
<svg version="1.0" id="Layer_1" xmlns="http://www.w3.org/2000/svg" xmlns:xlink="http://www.w3.org/1999/xlink" x="0px" y="0px"
	 width="512px" height="512px" viewBox="0 0 512 512" style="enable-background:new 0 0 512 512;" xml:space="preserve">
<style type="text/css">
	.st0{fill:#FFFFFF;}
</style>
<g>
	<path class="st0" d="M134.21,257.18c0-4.44,0-8.47,0-12.5c0.01-29.99,0.01-59.99,0.03-89.98c0-6.9,0.45-7.36,7.53-7.37
		c42.8-0.01,85.6,0.08,128.39-0.12c3.65-0.02,7.75-1.14,10.86-3.05c28.59-17.52,53.57-39.3,75.29-64.86c2.3-2.7,2.77-4.71,0.59-7.65
		c-2.22-3-3.99-6.34-5.89-9.57c-7.05-12.03-3.87-25.98,7.43-32.72c11.36-6.78,25.09-3.15,32.34,8.83
		c22.9,37.78,45.71,75.62,68.55,113.44c7.83,12.96,15.66,25.92,23.5,38.88c7.52,12.43,4.54,26.59-7.06,33.51
		c-11.5,6.86-25.05,3-32.58-9.29c-2.12-3.46-3.99-7.1-6.39-10.35c-0.84-1.13-3.1-2.1-4.43-1.82c-5.34,1.12-10.52,2.96-15.84,4.12
		c-3.41,0.75-4.28,2.42-4.27,5.78c0.11,41.09,0.07,82.17,0.07,123.26c0,28.74,0.06,57.49,0,86.23
		c-0.05,27.14-19.24,46.49-46.27,46.51c-89.34,0.05-178.69,0.04-268.03-0.01c-26.65-0.01-46.04-19.55-46.05-46.25
		c-0.03-52.49-0.02-104.98,0-157.47c0-7.14,0.25-7.35,7.46-7.35c23.74-0.01,47.48-0.01,71.22-0.02
		C131.58,257.36,132.51,257.27,134.21,257.18z M345.56,234.37c1.94,3.23,3.14,5.23,4.34,7.23c10.33,17.11,20.75,34.16,30.98,51.33
		c6.98,11.71,3.54,26.02-7.63,32.84c-11.43,6.97-25.69,3.41-33.01-8.33c-3.72-5.96-7.24-12.04-10.9-18.04
		c-0.58-0.95-1.35-1.77-2.67-3.47c0,4.68,0.03,8.25-0.01,11.82c-0.06,5.46-0.76,6.18-6.31,6.18c-46.71,0.01-93.42,0.01-140.12,0
		c-5.39,0-6.19-0.82-6.19-6.31c-0.01-31.56-0.02-63.12-0.01-94.68c0-5.61,0.93-6.54,6.54-6.54c11.09-0.02,22.18,0.02,33.27,0
		c1.6,0,3.21-0.18,4.88-0.28c-2.78-15.61,1.51-25.03,14.57-32.93c8.41-5.09,16.83-10.18,25.23-15.29c1.21-0.73,2.36-1.57,4.06-2.71
		c-40.75,0-80.62,0-120.88,0c0,1.77,0,3.16,0,4.54c0,18.44,0.01,36.87,0.01,55.31c0,68.9-0.02,137.8,0,206.7
		c0,15.15-5.51,27.66-17.39,37.24c-0.51,0.41-0.87,1-1.7,1.98c2.43,0,4.13,0,5.84,0c78.57,0,157.15,0,235.72,0
		c25.27,0,40.62-15.3,40.63-40.51c0-68.28-0.01-136.55-0.02-204.83c0-1.53,0-3.07,0-6.18C384.65,217.91,365.47,225.99,345.56,234.37
		z M59.75,265.1c-0.12,0.94-0.27,1.53-0.27,2.13c0,52.48-0.22,104.97,0.16,157.45c0.11,14.83,7.98,25.85,21.38,32.18
		c25.27,11.93,53.09-6.48,53.16-35.15c0.12-50.77,0.02-101.53,0-152.3c0-1.37-0.14-2.74-0.23-4.31
		C109.15,265.1,84.68,265.1,59.75,265.1z M431.24,194.95c-22.75-37.71-45.13-74.78-67.76-112.29c-3.89,4.31-7.25,8.38-11.01,12.05
		c-2.35,2.29-2.43,3.95-0.72,6.74c10.29,16.75,20.36,33.65,30.53,50.47c1.43,2.37,3.09,4.95-0.01,6.91c-3.4,2.14-5.01-0.73-6.5-3.21
		c-5.88-9.76-11.75-19.52-17.65-29.27c-4.57-7.57-9.17-15.12-13.93-22.97c-20.78,21.26-43.95,38.57-69.32,53.54
		c16.53,27.38,32.86,54.42,49.3,81.65C357.85,218.86,393.09,204.47,431.24,194.95z M181.66,306.01c46.04,0,91.64,0,137.25,0
		c0-8.21,1.79-16.56-0.46-23.62c-2.65-8.33-8.8-15.55-13.54-23.41c-5.2,3.15-9.85,5.98-14.52,8.8
		c-16.34,9.87-31.57,6.06-41.48-10.36c-8.06-13.36-16.06-26.75-24.25-40.03c-0.91-1.48-2.89-3.24-4.4-3.27
		c-12.32-0.26-24.66-0.15-36.98-0.11c-0.54,0-1.09,0.43-1.61,0.65C181.66,245.1,181.66,275.36,181.66,306.01z M480.27,204.03
		c-1.32-3.27-2.27-6.74-4.03-9.76c-5.88-10.12-12.05-20.07-18.11-30.09c-24.36-40.35-48.75-80.68-73.04-121.07
		c-3.05-5.07-7.17-8.24-13.06-8.66c-6.11-0.44-11.04,2.03-14.29,7.22c-3.68,5.87-3.17,11.75,0.4,17.65
		c23.59,38.99,47.12,78.02,70.67,117.03c7.18,11.89,14.27,23.84,21.57,35.65c4.12,6.67,11.13,9.22,18.19,7.06
		C475,217.11,479.46,211.11,480.27,204.03z M268.4,160.73c-11.31,6.82-22.16,13.27-32.91,19.89c-10.47,6.45-13.28,17.64-6.96,28.32
		c9.21,15.56,18.55,31.05,28.01,46.46c6.37,10.39,17.42,13.17,27.91,7.06c10.5-6.12,20.85-12.5,31.25-18.79
		c0.63-0.38,1.12-0.98,1.8-1.58C301.15,214.98,284.89,188.04,268.4,160.73z M339.24,238.49c-9.59,5.7-18.64,11.08-27.89,16.58
		c12.23,20.24,24.03,40.07,36.15,59.69c4.57,7.4,14.01,9.3,21.46,5.05c7.4-4.22,10.29-13.26,6.46-21.06
		c-1.85-3.77-4.21-7.29-6.38-10.89C359.22,271.57,349.39,255.3,339.24,238.49z"/>
	<path class="st0" d="M276.98,414.04c32.62,0,65.25,0,97.87,0c1.4,0,3.03-0.39,4.15,0.18c1.31,0.67,2.98,2.18,3.03,3.37
		c0.05,1.22-1.47,2.89-2.73,3.64c-1.06,0.63-2.73,0.29-4.13,0.29c-65.09,0.02-130.18,0.02-195.27,0.03c-0.78,0-1.73,0.27-2.31-0.08
		c-1.78-1.06-4.63-2.15-4.88-3.6c-0.55-3.18,2.18-3.85,4.99-3.85c20.14,0.03,40.27,0.01,60.41,0.01
		C251.07,414.02,264.03,414.02,276.98,414.04z"/>
	<path class="st0" d="M277.51,383.45c-32.62,0-65.24,0-97.86-0.01c-1.4,0-3.06,0.35-4.14-0.27c-1.27-0.72-2.69-2.25-2.84-3.56
		c-0.11-1.03,1.42-2.64,2.6-3.28c1.11-0.61,2.73-0.36,4.13-0.36c65.08-0.01,130.17-0.01,195.25-0.01c1.09,0,2.44-0.39,3.22,0.1
		c1.62,1.01,2.93,2.5,4.37,3.8c-1.51,1.2-3,3.38-4.55,3.43c-10.92,0.31-21.85,0.19-32.77,0.2c-22.48,0.01-44.95,0-67.43,0
		C277.51,383.46,277.51,383.45,277.51,383.45z"/>
	<path class="st0" d="M254.53,338.03c24.66,0,49.32,0,73.97,0c1.25,0,2.73-0.41,3.69,0.12c1.44,0.8,3.46,2.26,3.47,3.45
		c0.01,1.27-1.88,2.78-3.25,3.75c-0.74,0.53-2.12,0.19-3.21,0.19c-49.78,0-99.57-0.01-149.35-0.02c-1.09,0-2.42,0.38-3.23-0.1
		c-1.54-0.93-2.79-2.35-4.16-3.57c1.45-1.27,2.84-3.56,4.35-3.64c7.63-0.38,15.29-0.2,22.93-0.2c18.26,0,36.52,0,54.78,0
		C254.53,338.01,254.53,338.02,254.53,338.03z"/>
	<path class="st0" d="M77.45,341.92c0-18.1,0-36.19,0-54.29c0-1.09-0.38-2.42,0.11-3.23c0.93-1.54,2.35-2.78,3.57-4.14
		c1.26,1.31,2.73,2.49,3.7,3.99c0.5,0.78,0.11,2.13,0.11,3.22c0,36.19,0,72.39,0,108.58c0,1.25,0.36,2.71-0.16,3.69
		c-0.72,1.33-2.24,3.29-3.22,3.18c-1.43-0.16-2.91-1.73-3.93-3.05c-0.54-0.7-0.19-2.11-0.19-3.2
		C77.44,378.43,77.44,360.18,77.45,341.92z"/>
	<path class="st0" d="M84.89,425.53c0,1.56,0.47,3.33-0.12,4.61c-0.66,1.44-2.28,3.36-3.48,3.36c-1.25,0-3.36-1.89-3.59-3.21
		c-0.53-3.18-0.53-6.56-0.02-9.75c0.22-1.35,2.26-2.41,3.47-3.6c1.25,1.3,2.9,2.42,3.64,3.97c0.6,1.27,0.12,3.06,0.12,4.61
		C84.91,425.53,84.9,425.53,84.89,425.53z"/>
	<path class="st0" d="M390.39,166.59c1.94,2.77,4.19,5.38,5.73,8.35c1.49,2.87,3.08,6.11,3.08,9.18c0,2.35-4.2,2.63-5.92,0.16
		c-2.57-3.69-4.9-7.58-7.01-11.56C384.89,170.11,386.59,167.47,390.39,166.59z"/>
	<path class="st0" d="M247.21,205.68c-1.52-1.25-3.11-1.93-3.4-2.97c-0.35-1.24-0.09-3.54,0.75-4.1c5.82-3.84,11.8-7.46,17.9-10.83
		c0.87-0.48,3.07,0.39,3.93,1.31c0.69,0.75,0.85,3.31,0.3,3.7C260.38,197.19,253.88,201.32,247.21,205.68z"/>
	<path class="st0" d="M279.81,212.37c-0.54,0.7-1.22,2.2-2.39,2.94c-5.09,3.26-10.21,6.53-15.58,9.28
		c-1.34,0.68-3.67-0.58-5.54-0.95c0.53-1.72,0.52-4.23,1.68-5.04c5.09-3.52,10.47-6.66,15.86-9.71
		C276.65,207.3,279.57,208.8,279.81,212.37z"/>
	<path class="st0" d="M292.17,233.42c-0.46,0.55-1.12,1.86-2.19,2.54c-5.14,3.26-10.28,6.53-15.67,9.35
		c-1.3,0.68-3.52-0.39-5.31-0.65c0.51-1.87,0.42-4.59,1.64-5.45c5.1-3.57,10.52-6.71,15.97-9.74
		C289.44,227.91,292.26,229.71,292.17,233.42z"/>
</g>
</svg>
