<?xml version="1.0" encoding="utf-8"?>
<!-- Generator: Adobe Illustrator 27.2.0, SVG Export Plug-In . SVG Version: 6.00 Build 0)  -->
<svg version="1.0" id="Layer_1" xmlns="http://www.w3.org/2000/svg" xmlns:xlink="http://www.w3.org/1999/xlink" x="0px" y="0px"
	 width="192px" height="192px" viewBox="0 0 192 192" style="enable-background:new 0 0 192 192;" xml:space="preserve">
<style type="text/css">
	.st0{fill:none;stroke:#FFFFFF;stroke-miterlimit:10;}
</style>
<path vector-effect="non-scaling-stroke" class="st0" d="M118,80l-31.85,32L74,100 M164.56,78.69c4.86,4.89,7.54,11.52,7.44,18.41
	c-0.1,6.89-2.97,13.44-7.97,18.19c1.76,6.66,0.77,13.75-2.76,19.66c-3.53,5.91-9.3,10.16-16,11.77c-1.04,3.86-2.98,7.43-5.66,10.4
	c-6.61,7.33-16.83,10.22-26.3,7.44c-4.88,4.86-11.52,7.54-18.41,7.44c-6.89-0.1-13.45-2.97-18.19-7.97
	c-6.66,1.76-13.75,0.76-19.66-2.76c-5.91-3.53-10.16-9.3-11.77-16c-3.86-1.04-7.43-2.98-10.4-5.66c-7.33-6.61-10.23-16.83-7.44-26.3
	c-7.4-7.46-9.49-18.69-5.27-28.32c1.37-3.12,3.35-5.94,5.83-8.28c-3.62-13.66,4.52-27.67,18.18-31.29c0.18-0.05,0.37-0.09,0.55-0.14
	c1.04-3.86,2.98-7.43,5.66-10.4c6.61-7.33,16.83-10.23,26.3-7.44c10.02-9.96,26.23-9.92,36.19,0.11c0.14,0.14,0.28,0.28,0.41,0.42
	c13.66-3.62,27.67,4.53,31.29,18.19c0.05,0.19,0.1,0.38,0.14,0.57c3.86,1.04,7.43,2.98,10.4,5.66
	C164.46,58.99,167.35,69.22,164.56,78.69 M148,96c0,28.72-23.28,52-52,52s-52-23.28-52-52s23.28-52,52-52S148,67.28,148,96"/>
</svg>
