<?xml version="1.0" encoding="utf-8"?>
<!-- Generator: Adobe Illustrator 27.2.0, SVG Export Plug-In . SVG Version: 6.00 Build 0)  -->
<svg version="1.0" id="Layer_1" xmlns="http://www.w3.org/2000/svg" xmlns:xlink="http://www.w3.org/1999/xlink" x="0px" y="0px"
	 width="192px" height="192px" viewBox="0 0 192 192" style="enable-background:new 0 0 192 192;" xml:space="preserve">
<style type="text/css">
	.st0{fill:none;stroke:#FFFFFF;stroke-miterlimit:10;}
</style>
<path vector-effect="non-scaling-stroke" class="st0" d="M60,156h16 M108,140h24 M108,116.45V156 M108,156c0,8.83-7.16,16-15.99,16
	c0,0,0,0-0.01,0H44c-8.84,0-16-7.16-16-16V53.3c0.01-9.55,7.75-17.29,17.3-17.3H108v32.28 M108,156h40c8.84,0,16-7.16,16-16V20h-64
	c-8.84,0-16,7.16-16,16 M139.28,92.07H52.17 M80,117.74l-28-26l28-26"/>
</svg>
