<?xml version="1.0" encoding="utf-8"?>
<!-- Generator: Adobe Illustrator 27.2.0, SVG Export Plug-In . SVG Version: 6.00 Build 0)  -->
<svg version="1.0" id="Layer_1" xmlns="http://www.w3.org/2000/svg" xmlns:xlink="http://www.w3.org/1999/xlink" x="0px" y="0px"
	 width="512px" height="512px" viewBox="0 0 512 512" style="enable-background:new 0 0 512 512;" xml:space="preserve">
<style type="text/css">
	.st0{fill:#FFFFFF;}
</style>
<g>
	<path class="st0" d="M58.69,429.32c1-20.3,0.21-40.87,3.33-60.84c9.85-63.01,60.93-110.71,124.55-116.27
		c24.28-2.12,48.87-1.09,73.31-1.04c22.49,0.04,45.05-0.36,67.44,1.31c34.6,2.58,63.57,18.07,87.37,43.05
		c21.31,22.38,33.6,49.28,37.45,79.85c1.14,9.06,0.71,18.33,0.81,27.51c0.2,19.33,0.32,38.65,0.38,57.98
		c0.02,5.27-0.17,10.55-0.52,15.81c-0.43,6.38-3.08,8.63-10.06,8.66c-22.11,0.09-44.22,0.1-66.33,0.17
		c-74.31,0.24-148.63,0.5-222.94,0.73c-26.8,0.08-53.59,0.12-80.39,0.14c-10.85,0.01-13.43-2.64-13.44-13.58
		c-0.01-14.48,0-28.96,0-43.45C59.32,429.35,59,429.33,58.69,429.32z M153.24,467.59c1.68,0.26,2.43,0.48,3.18,0.48
		c66.33,0.15,132.66,0.25,198.99,0.5c4.77,0.02,5.32-2.24,5.3-6.14c-0.12-22.11-0.08-44.23-0.02-66.34c0.01-2.12,0.2-4.31,0.77-6.34
		c1.15-4.04,3.95-6.04,8.27-6.01c4.38,0.03,7.05,2.19,7.97,6.3c0.55,2.44,0.7,5.02,0.71,7.54c0.06,21.53,0.22,43.05-0.09,64.58
		c-0.08,5.34,1.68,6.63,6.7,6.53c13.89-0.28,27.78-0.09,41.67-0.06c9.78,0.02,9.86,0.03,9.79-10.07
		c-0.12-17.97-0.9-35.96-0.39-53.91c0.57-20.15-1.3-39.67-8.61-58.65c-17.02-44.18-61.98-76.25-109.21-76.68
		c-40.3-0.37-80.62-0.54-120.92,0.16c-65.19,1.13-117.7,53.77-119.07,118.96c-0.53,25.04-0.12,50.09-0.11,75.14
		c0,1.3,0.27,2.6,0.42,4.05c18.85,0,37.31,0,56.26,0c0-2.59,0-4.71,0-6.84c0-22.31-0.03-44.62,0.02-66.93
		c0.02-6.57,3.6-10.86,8.88-11c5.58-0.14,9.39,4.18,9.45,11.04c0.09,10.18,0.02,20.35,0.02,30.53
		C153.24,438.68,153.24,452.93,153.24,467.59z"/>
	<path class="st0" d="M358.59,128.7c0.02,56.58-46.06,102.87-102.46,102.92c-56.17,0.05-102.43-46.52-102.47-103.16
		C153.62,72.53,199.9,25.64,255.19,25.61C312.62,25.58,358.57,71.4,358.59,128.7z M256.87,43.72c-47.24-0.08-84.8,37.52-84.86,84.95
		c-0.05,46.72,37.46,84.43,83.84,84.92c43.41,0.46,85.44-33.34,85.41-85.07C341.23,76.19,298.52,43.1,256.87,43.72z"/>
</g>
</svg>
