<?xml version="1.0"?>
<svg xmlns="http://www.w3.org/2000/svg" height="512px" version="1.1" viewBox="-117 0 937 937.5" width="512px">
  <g id="surface1">
    <path d="M 469 509.042969 L 469 406.25 L 437.75 406.25 L 437.75 649.53125 L 406.5 618.140625 L 406.5 390.625 L 375.25 390.625 L 375.25 586.765625 L 342.4375 553.78125 C 317.703125 528.867188 278.417969 525.929688 250.25 546.875 L 125.25 546.875 L 125.25 578.125 L 226.023438 578.125 C 222.753906 586.375 221.0625 595.164062 221.027344 604.054688 C 221.027344 605.859375 221.417969 607.597656 221.5625 609.375 L 125.25 609.375 L 125.25 640.625 L 231.5 640.625 C 234.410156 645.601562 237.914062 650.199219 241.9375 654.328125 L 321.90625 734.375 L 281.5 734.375 L 281.5 765.625 L 353.15625 765.625 L 368.5 780.96875 C 364.070312 786.09375 359.90625 791.414062 356 796.875 L 31.5 796.875 L 31.5 203.125 L 297.125 203.125 L 297.125 171.875 L 31.5 171.875 L 31.5 156.25 C 31.5 138.988281 45.488281 125 62.75 125 L 312.75 125 L 312.75 93.75 L 62.75 93.75 C 28.234375 93.75 0.25 121.734375 0.25 156.25 L 0.25 843.75 C 0.25 878.265625 28.234375 906.25 62.75 906.25 L 316.464844 906.25 C 316.0625 911.6875 315.734375 917.1875 315.734375 922.636719 L 315.734375 937.5 L 346.984375 937.5 L 346.984375 922.636719 C 346.859375 873.476562 366.402344 826.292969 401.265625 791.625 C 407.359375 785.523438 407.359375 775.632812 401.265625 769.53125 L 263.953125 632.230469 C 248.394531 616.671875 248.394531 591.4375 263.953125 575.875 C 279.738281 560.859375 304.515625 560.859375 320.292969 575.875 L 473.566406 729.796875 L 495.683594 707.734375 L 469 680.90625 L 469 552.78125 L 505.75 588.71875 C 532.339844 615.164062 547.242188 651.152344 547.125 688.664062 L 547.125 937.5 L 578.375 937.5 L 578.375 688.664062 C 578.496094 642.816406 560.25 598.835938 527.714844 566.542969 Z M 62.75 875 C 45.488281 875 31.5 861.011719 31.5 843.75 L 31.5 828.125 L 337.40625 828.125 C 330.203125 843.066406 324.75 858.792969 321.1875 875 Z M 62.75 875 " style=" fill-rule:nonzero;fill-opacity:1;" stroke="#FFFFFF" fill="#FFFFFF" />
    <path d="M 297.125 279.40625 L 272.859375 267.265625 C 268.460938 265.070312 263.289062 265.070312 258.890625 267.265625 L 234.625 279.40625 L 210.359375 267.265625 C 205.960938 265.070312 200.789062 265.070312 196.390625 267.265625 L 172.125 279.40625 L 147.859375 267.265625 C 143.460938 265.070312 138.289062 265.070312 133.890625 267.265625 L 109.625 279.40625 L 85.359375 267.265625 C 80.515625 264.84375 74.761719 265.109375 70.164062 267.949219 C 65.554688 270.804688 62.75 275.828125 62.75 281.25 L 62.75 765.625 L 94 765.625 L 94 306.53125 L 102.640625 310.859375 C 107.039062 313.054688 112.210938 313.054688 116.609375 310.859375 L 140.875 298.71875 L 165.140625 310.859375 C 169.539062 313.054688 174.710938 313.054688 179.109375 310.859375 L 203.375 298.71875 L 227.640625 310.859375 C 232.039062 313.054688 237.210938 313.054688 241.609375 310.859375 L 265.875 298.71875 L 290.140625 310.859375 C 294.539062 313.054688 299.710938 313.054688 304.109375 310.859375 L 319.734375 303.046875 L 305.765625 275.078125 Z M 297.125 279.40625 " style=" fill-rule:nonzero;fill-opacity:1;" stroke="#FFFFFF" fill="#FFFFFF" />
    <path d="M 172.125 359.375 L 312.75 359.375 L 312.75 390.625 L 172.125 390.625 Z M 172.125 359.375 " style=" fill-rule:nonzero;fill-opacity:1;" stroke="#FFFFFF" fill="#FFFFFF" />
    <path d="M 125.25 421.875 L 250.25 421.875 L 250.25 453.125 L 125.25 453.125 Z M 125.25 421.875 " style=" fill-rule:nonzero;fill-opacity:1;" stroke="#FFFFFF" fill="#FFFFFF" />
    <path d="M 281.5 421.875 L 344 421.875 L 344 453.125 L 281.5 453.125 Z M 281.5 421.875 " style=" fill-rule:nonzero;fill-opacity:1;" stroke="#FFFFFF" fill="#FFFFFF" />
    <path d="M 125.25 484.375 L 250.25 484.375 L 250.25 515.625 L 125.25 515.625 Z M 125.25 484.375 " style=" fill-rule:nonzero;fill-opacity:1;" stroke="#FFFFFF" fill="#FFFFFF" />
    <path d="M 281.5 484.375 L 344 484.375 L 344 515.625 L 281.5 515.625 Z M 281.5 484.375 " style=" fill-rule:nonzero;fill-opacity:1;" stroke="#FFFFFF" fill="#FFFFFF" />
    <path d="M 125.25 671.875 L 250.25 671.875 L 250.25 703.125 L 125.25 703.125 Z M 125.25 671.875 " style=" fill-rule:nonzero;fill-opacity:1;" stroke="#FFFFFF" fill="#FFFFFF" />
    <path d="M 125.25 734.375 L 250.25 734.375 L 250.25 765.625 L 125.25 765.625 Z M 125.25 734.375 " style=" fill-rule:nonzero;fill-opacity:1;" stroke="#FFFFFF" fill="#FFFFFF" />
    <path d="M 515.875 0 C 411.078125 1.410156 327.203125 87.390625 328.375 192.1875 C 328.375 295.742188 412.320312 379.6875 515.875 379.6875 C 619.429688 379.6875 703.375 295.742188 703.375 192.1875 C 704.546875 87.390625 620.671875 1.410156 515.875 0 Z M 515.875 353.125 C 428.328125 351.734375 358.433594 279.730469 359.625 192.1875 C 359.625 105.898438 429.578125 35.9375 515.875 35.9375 C 602.171875 35.9375 672.125 105.898438 672.125 192.1875 C 673.316406 279.730469 603.421875 351.734375 515.875 353.125 Z M 515.875 353.125 " style=" fill-rule:nonzero;fill-opacity:1;" stroke="#FFFFFF" fill="#FFFFFF" />
    <path d="M 555.578125 181.25 L 483.703125 163.320312 C 474.1875 160.914062 467.949219 151.800781 469.136719 142.0625 C 470.328125 132.320312 478.574219 124.976562 488.394531 124.941406 L 578.375 124.941406 L 578.375 93.75 L 531.5 93.75 L 531.5 62.5 L 500.25 62.5 L 500.25 93.75 L 488.472656 93.75 C 462.742188 93.59375 440.960938 112.734375 437.820312 138.277344 C 434.671875 163.820312 451.167969 187.671875 476.171875 193.75 L 548.046875 211.679688 C 557.5625 214.085938 563.800781 223.199219 562.613281 232.9375 C 561.421875 242.679688 553.175781 250.023438 543.355469 250.058594 L 453.375 250.058594 L 453.375 281.308594 L 500.25 281.308594 L 500.25 312.558594 L 531.5 312.558594 L 531.5 281.25 L 543.277344 281.25 C 569.007812 281.40625 590.789062 262.265625 593.929688 236.722656 C 597.078125 211.179688 580.582031 187.328125 555.578125 181.25 Z M 555.578125 181.25 " style=" fill-rule:nonzero;fill-opacity:1;" stroke="#FFFFFF" fill="#FFFFFF" />
  </g>
</svg>